<svg xmlns="http://www.w3.org/2000/svg" width="64" height="24" viewBox="0 0 64 24" fill="none">
  <path d="M12.3085 0C18.9269 0 24.2913 5.3643 24.2913 11.9826C24.2913 18.6009 18.9269 24 12.3085 24C5.69008 24 0.325684 18.6009 0.325684 11.9826C0.325684 5.3643 5.69008 0 12.3085 0ZM12.3085 22.1538C17.8819 22.1538 22.4451 17.5907 22.4451 11.9826C22.4451 6.40929 17.8819 1.84615 12.3085 1.84615C6.70026 1.84615 2.13704 6.40929 2.13704 11.9826C2.13704 17.5907 6.70026 22.1538 12.3085 22.1538Z" fill="#FAFAFA"/>
  <path d="M28.8483 4.3193V14.9434C28.8483 15.3962 28.4651 15.7794 28.0123 15.7794H26.9324V0.557331H28.0123C28.2909 0.557331 28.5348 0.696663 28.7089 0.905661L43.4088 20.7257V1.42816C43.4088 0.975329 43.7919 0.592163 44.2448 0.592163H45.3595V23.5472H43.5481C43.2694 23.5472 43.0256 23.4427 42.8863 23.2337L28.8483 4.3193Z" fill="#FAFAFA"/>
  <path d="M50.1939 23.5472C49.7062 23.5472 49.3578 23.1988 49.3578 22.7112V21.7707H62.8385C63.2913 21.7707 63.6745 22.119 63.6745 22.6067V23.5472H50.1939ZM62.525 10.8331V11.7736C62.525 12.2612 62.1418 12.6096 61.6542 12.6096H49.3578V11.6691C49.3578 11.1814 49.7062 10.8331 50.1939 10.8331H62.525ZM49.3578 2.33382V1.35849C49.3578 0.905661 49.7062 0.522498 50.1939 0.522498H63.6745V1.49782C63.6745 1.95065 63.2913 2.33382 62.8385 2.33382H49.3578Z" fill="#FAFAFA"/>
  <path d="M6.96049 10.1182C6.96049 10.0238 7.02648 9.9496 7.11885 9.9496H9.62615V10.1451C9.62615 10.2328 9.55357 10.307 9.46779 10.307H6.96049V10.1182ZM8.30652 14.4H8.11517V11.2712C8.11517 11.1836 8.18775 11.1094 8.28013 11.1094H8.46487V14.2382C8.46487 14.3326 8.39229 14.4 8.30652 14.4Z" fill="#FAFAFA"/>
  <path d="M10.8209 14.4V9.9496H11.0123C11.1047 9.9496 11.1772 10.0238 11.1772 10.1114V14.2382C11.1772 14.3326 11.1047 14.4 11.0123 14.4H10.8209ZM13.7505 11.932V10.1114C13.7505 10.0238 13.8231 9.9496 13.9155 9.9496H14.1068V14.4H13.9155C13.8231 14.4 13.7505 14.3326 13.7505 14.2382V12.3029H12.5892C12.5035 12.3029 12.4309 12.2287 12.4309 12.1343V11.932H13.7505Z" fill="#FAFAFA"/>
  <path d="M15.3836 14.4C15.2912 14.4 15.2252 14.3326 15.2252 14.2382V14.0561H17.7787C17.8645 14.0561 17.937 14.1235 17.937 14.2179V14.4H15.3836ZM17.7193 11.9388V12.1209C17.7193 12.2153 17.6467 12.2827 17.5544 12.2827H15.2252V12.1006C15.2252 12.0062 15.2912 11.9388 15.3836 11.9388H17.7193ZM15.2252 10.2935V10.1047C15.2252 10.017 15.2912 9.94286 15.3836 9.94286H17.937V10.1317C17.937 10.2193 17.8645 10.2935 17.7787 10.2935H15.2252Z" fill="#FAFAFA"/>
</svg>